<mxfile host="app.diagrams.net" modified="2022-03-29T04:52:24.202Z" agent="5.0 (Windows NT 10.0; Win64; x64) AppleWebKit/537.36 (KHTML, like Gecko) Chrome/99.0.4844.84 Safari/537.36" etag="8ahK8SL-iFXZ3GGcdDPg" version="17.2.4" type="github">
  <diagram id="prtHgNgQTEPvFCAcTncT" name="Page-1">
    <mxGraphModel dx="1346" dy="1941" grid="1" gridSize="10" guides="1" tooltips="1" connect="1" arrows="1" fold="1" page="1" pageScale="1" pageWidth="827" pageHeight="1169" math="0" shadow="0">
      <root>
        <mxCell id="0" />
        <mxCell id="1" parent="0" />
        <mxCell id="Pc5YQO_L7Gz3SRaqSQNm-7" style="edgeStyle=orthogonalEdgeStyle;rounded=0;orthogonalLoop=1;jettySize=auto;html=1;entryX=0;entryY=0.5;entryDx=0;entryDy=0;" edge="1" parent="1" source="Pc5YQO_L7Gz3SRaqSQNm-1" target="Pc5YQO_L7Gz3SRaqSQNm-2">
          <mxGeometry relative="1" as="geometry">
            <Array as="points">
              <mxPoint x="180" y="310" />
              <mxPoint x="180" y="170" />
            </Array>
          </mxGeometry>
        </mxCell>
        <mxCell id="Pc5YQO_L7Gz3SRaqSQNm-8" style="edgeStyle=orthogonalEdgeStyle;rounded=0;orthogonalLoop=1;jettySize=auto;html=1;entryX=0;entryY=0.5;entryDx=0;entryDy=0;" edge="1" parent="1" source="Pc5YQO_L7Gz3SRaqSQNm-1" target="Pc5YQO_L7Gz3SRaqSQNm-3">
          <mxGeometry relative="1" as="geometry">
            <Array as="points">
              <mxPoint x="180" y="310" />
              <mxPoint x="180" y="310" />
            </Array>
          </mxGeometry>
        </mxCell>
        <mxCell id="Pc5YQO_L7Gz3SRaqSQNm-9" style="edgeStyle=orthogonalEdgeStyle;rounded=0;orthogonalLoop=1;jettySize=auto;html=1;entryX=0;entryY=0.5;entryDx=0;entryDy=0;" edge="1" parent="1" source="Pc5YQO_L7Gz3SRaqSQNm-1" target="Pc5YQO_L7Gz3SRaqSQNm-4">
          <mxGeometry relative="1" as="geometry">
            <Array as="points">
              <mxPoint x="180" y="310" />
              <mxPoint x="180" y="470" />
            </Array>
          </mxGeometry>
        </mxCell>
        <mxCell id="Pc5YQO_L7Gz3SRaqSQNm-1" value="功能模块" style="rounded=0;whiteSpace=wrap;html=1;" vertex="1" parent="1">
          <mxGeometry x="20" y="280" width="120" height="60" as="geometry" />
        </mxCell>
        <mxCell id="Pc5YQO_L7Gz3SRaqSQNm-23" style="edgeStyle=orthogonalEdgeStyle;rounded=0;orthogonalLoop=1;jettySize=auto;html=1;entryX=0;entryY=0.5;entryDx=0;entryDy=0;" edge="1" parent="1" source="Pc5YQO_L7Gz3SRaqSQNm-2" target="Pc5YQO_L7Gz3SRaqSQNm-16">
          <mxGeometry relative="1" as="geometry" />
        </mxCell>
        <mxCell id="Pc5YQO_L7Gz3SRaqSQNm-24" style="edgeStyle=orthogonalEdgeStyle;rounded=0;orthogonalLoop=1;jettySize=auto;html=1;entryX=-0.008;entryY=0.383;entryDx=0;entryDy=0;entryPerimeter=0;" edge="1" parent="1" source="Pc5YQO_L7Gz3SRaqSQNm-2" target="Pc5YQO_L7Gz3SRaqSQNm-10">
          <mxGeometry relative="1" as="geometry" />
        </mxCell>
        <mxCell id="Pc5YQO_L7Gz3SRaqSQNm-2" value="玩家操作" style="rounded=0;whiteSpace=wrap;html=1;" vertex="1" parent="1">
          <mxGeometry x="220" y="140" width="120" height="60" as="geometry" />
        </mxCell>
        <mxCell id="Pc5YQO_L7Gz3SRaqSQNm-20" style="edgeStyle=orthogonalEdgeStyle;rounded=0;orthogonalLoop=1;jettySize=auto;html=1;entryX=0;entryY=0.5;entryDx=0;entryDy=0;" edge="1" parent="1" source="Pc5YQO_L7Gz3SRaqSQNm-3" target="Pc5YQO_L7Gz3SRaqSQNm-11">
          <mxGeometry relative="1" as="geometry" />
        </mxCell>
        <mxCell id="Pc5YQO_L7Gz3SRaqSQNm-21" style="edgeStyle=orthogonalEdgeStyle;rounded=0;orthogonalLoop=1;jettySize=auto;html=1;entryX=0;entryY=0.5;entryDx=0;entryDy=0;" edge="1" parent="1" source="Pc5YQO_L7Gz3SRaqSQNm-3" target="Pc5YQO_L7Gz3SRaqSQNm-17">
          <mxGeometry relative="1" as="geometry" />
        </mxCell>
        <mxCell id="Pc5YQO_L7Gz3SRaqSQNm-22" style="edgeStyle=orthogonalEdgeStyle;rounded=0;orthogonalLoop=1;jettySize=auto;html=1;entryX=0;entryY=0.5;entryDx=0;entryDy=0;" edge="1" parent="1" source="Pc5YQO_L7Gz3SRaqSQNm-3" target="Pc5YQO_L7Gz3SRaqSQNm-12">
          <mxGeometry relative="1" as="geometry" />
        </mxCell>
        <mxCell id="Pc5YQO_L7Gz3SRaqSQNm-3" value="静态模型操作" style="rounded=0;whiteSpace=wrap;html=1;" vertex="1" parent="1">
          <mxGeometry x="220" y="280" width="120" height="60" as="geometry" />
        </mxCell>
        <mxCell id="Pc5YQO_L7Gz3SRaqSQNm-18" style="edgeStyle=orthogonalEdgeStyle;rounded=0;orthogonalLoop=1;jettySize=auto;html=1;entryX=0;entryY=0.5;entryDx=0;entryDy=0;" edge="1" parent="1" source="Pc5YQO_L7Gz3SRaqSQNm-4" target="Pc5YQO_L7Gz3SRaqSQNm-14">
          <mxGeometry relative="1" as="geometry" />
        </mxCell>
        <mxCell id="Pc5YQO_L7Gz3SRaqSQNm-19" style="edgeStyle=orthogonalEdgeStyle;rounded=0;orthogonalLoop=1;jettySize=auto;html=1;entryX=0;entryY=0.5;entryDx=0;entryDy=0;" edge="1" parent="1" source="Pc5YQO_L7Gz3SRaqSQNm-4" target="Pc5YQO_L7Gz3SRaqSQNm-13">
          <mxGeometry relative="1" as="geometry" />
        </mxCell>
        <mxCell id="Pc5YQO_L7Gz3SRaqSQNm-4" value="计算机操作" style="rounded=0;whiteSpace=wrap;html=1;" vertex="1" parent="1">
          <mxGeometry x="220" y="440" width="120" height="60" as="geometry" />
        </mxCell>
        <mxCell id="Pc5YQO_L7Gz3SRaqSQNm-10" value="玩家操作模块" style="rounded=0;whiteSpace=wrap;html=1;" vertex="1" parent="1">
          <mxGeometry x="470" y="-20" width="120" height="60" as="geometry" />
        </mxCell>
        <mxCell id="Pc5YQO_L7Gz3SRaqSQNm-11" value="大世界模块" style="rounded=0;whiteSpace=wrap;html=1;" vertex="1" parent="1">
          <mxGeometry x="470" y="360" width="120" height="60" as="geometry" />
        </mxCell>
        <mxCell id="Pc5YQO_L7Gz3SRaqSQNm-12" value="UI模块" style="rounded=0;whiteSpace=wrap;html=1;" vertex="1" parent="1">
          <mxGeometry x="470" y="180" width="120" height="60" as="geometry" />
        </mxCell>
        <mxCell id="Pc5YQO_L7Gz3SRaqSQNm-13" value="NPC模块" style="rounded=0;whiteSpace=wrap;html=1;" vertex="1" parent="1">
          <mxGeometry x="470" y="440" width="120" height="60" as="geometry" />
        </mxCell>
        <mxCell id="Pc5YQO_L7Gz3SRaqSQNm-14" value="歌词模块" style="rounded=0;whiteSpace=wrap;html=1;" vertex="1" parent="1">
          <mxGeometry x="470" y="540" width="120" height="60" as="geometry" />
        </mxCell>
        <mxCell id="Pc5YQO_L7Gz3SRaqSQNm-16" value="游戏环节模块" style="rounded=0;whiteSpace=wrap;html=1;" vertex="1" parent="1">
          <mxGeometry x="470" y="80" width="120" height="60" as="geometry" />
        </mxCell>
        <mxCell id="Pc5YQO_L7Gz3SRaqSQNm-17" value="音乐模块" style="rounded=0;whiteSpace=wrap;html=1;" vertex="1" parent="1">
          <mxGeometry x="470" y="280" width="120" height="60" as="geometry" />
        </mxCell>
      </root>
    </mxGraphModel>
  </diagram>
</mxfile>
